<svg width="24" height="24" viewBox="0 0 24 24" fill="none" xmlns="http://www.w3.org/2000/svg">
<g opacity="0.4">
<path d="M12 9V2L10 4" stroke="#D5B98B" stroke-width="1.5" stroke-linecap="round" stroke-linejoin="round"/>
<path d="M12 2L14 4" stroke="#D5B98B" stroke-width="1.5" stroke-linecap="round" stroke-linejoin="round"/>
</g>
<path opacity="0.4" d="M1.97656 13H6.38656C6.76656 13 7.10656 13.21 7.27656 13.55L8.44656 15.89C8.78656 16.57 9.47656 17 10.2366 17H13.7666C14.5266 17 15.2166 16.57 15.5566 15.89L16.7266 13.55C16.8966 13.21 17.2466 13 17.6166 13H21.9766" stroke="#D5B98B" stroke-width="1.5" stroke-linecap="round" stroke-linejoin="round"/>
<path d="M7 5.12891C3.46 5.64891 2 7.72891 2 11.9989V14.9989C2 19.9989 4 21.9989 9 21.9989H15C20 21.9989 22 19.9989 22 14.9989V11.9989C22 7.72891 20.54 5.64891 17 5.12891" stroke="#D5B98B" stroke-width="1.5" stroke-linecap="round" stroke-linejoin="round"/>
</svg>
