<svg width="80" height="80" viewBox="0 0 80 80" fill="none" xmlns="http://www.w3.org/2000/svg">
<path d="M57.5 10.1562H54.6228C53.5498 4.48859 48.5806 0 42.5 0H37.5C31.4233 0 26.4508 4.48563 25.3772 10.1562H22.5C14.3152 10.1562 7.65625 16.8152 7.65625 25C7.65625 26.2944 8.70562 27.3438 10 27.3438H14.0673L17.3522 73.4681C17.6128 77.1309 20.6936 80 24.3655 80H55.6344C59.3063 80 62.387 77.1309 62.6478 73.4681L65.9327 27.3438H70C71.2944 27.3438 72.3438 26.2944 72.3438 25C72.3438 16.8152 65.6848 10.1562 57.5 10.1562ZM37.5 4.6875H42.5C45.9219 4.6875 48.8266 6.98969 49.8044 10.1562H30.1956C31.1734 6.98969 34.0781 4.6875 37.5 4.6875ZM57.9723 73.1352C57.8853 74.3559 56.8584 75.3125 55.6345 75.3125H24.3655C23.1416 75.3125 22.1145 74.3561 22.0277 73.1352L18.7666 27.3438H61.2333L57.9723 73.1352ZM12.6167 22.6562C13.6775 18.182 17.7063 14.8438 22.5 14.8438H57.5C62.2939 14.8438 66.3225 18.182 67.3833 22.6562C65.2717 22.6562 14.3891 22.6562 12.6167 22.6562Z" fill="#005D63"/>
<path d="M47.383 67.3409C48.6716 67.405 49.7759 66.4142 49.8408 65.1172L51.0908 40.1172C51.1555 38.8245 50.1598 37.724 48.867 37.6594C47.5763 37.5933 46.4738 38.5903 46.4092 39.8831L45.1592 64.8831C45.0945 66.1757 46.0902 67.2762 47.383 67.3409Z" fill="#D5B98B"/>
<path d="M32.498 67.3438C33.8475 67.3438 34.9074 66.2152 34.8408 64.883L33.5908 39.883C33.5261 38.5903 32.4239 37.5944 31.133 37.6592C29.8402 37.7239 28.8445 38.8244 28.9092 40.1171L30.1592 65.1171C30.2217 66.37 31.2574 67.3438 32.498 67.3438Z" fill="#D5B98B"/>
</svg>
