<svg width="22" height="22" viewBox="0 0 22 22" fill="none" xmlns="http://www.w3.org/2000/svg">
<path d="M18.3307 6.41536V15.582C18.3307 19.2487 17.4141 20.1654 13.7474 20.1654H8.2474C4.58073 20.1654 3.66406 19.2487 3.66406 15.582V6.41536C3.66406 2.7487 4.58073 1.83203 8.2474 1.83203H13.7474C17.4141 1.83203 18.3307 2.7487 18.3307 6.41536Z" stroke="#D5B98B" stroke-width="1.5" stroke-linecap="round" stroke-linejoin="round"/>
<path opacity="0.4" d="M12.8307 5.03906H9.16406" stroke="#D5B98B" stroke-width="1.5" stroke-linecap="round" stroke-linejoin="round"/>
<path opacity="0.4" d="M10.999 17.5057C11.7837 17.5057 12.4198 16.8696 12.4198 16.0849C12.4198 15.3002 11.7837 14.6641 10.999 14.6641C10.2143 14.6641 9.57812 15.3002 9.57812 16.0849C9.57812 16.8696 10.2143 17.5057 10.999 17.5057Z" stroke="#D5B98B" stroke-width="1.5" stroke-linecap="round" stroke-linejoin="round"/>
</svg>
