<svg width="22" height="22" viewBox="0 0 22 22" fill="none" xmlns="http://www.w3.org/2000/svg">
<path opacity="0.4" d="M11.1089 11.7151C11.0447 11.7059 10.9622 11.7059 10.8889 11.7151C9.27552 11.6601 7.99219 10.3401 7.99219 8.7176C7.99219 7.05844 9.33052 5.71094 10.9989 5.71094C12.658 5.71094 14.0055 7.05844 14.0055 8.7176C13.9964 10.3401 12.7222 11.6601 11.1089 11.7151Z" stroke="#D5B98B" stroke-width="1.5" stroke-linecap="round" stroke-linejoin="round"/>
<path opacity="0.34" d="M17.177 17.7647C15.5453 19.2589 13.382 20.1664 10.9986 20.1664C8.61531 20.1664 6.45198 19.2589 4.82031 17.7647C4.91198 16.903 5.46198 16.0597 6.44281 15.3997C8.95448 13.7314 13.0611 13.7314 15.5545 15.3997C16.5353 16.0597 17.0853 16.903 17.177 17.7647Z" stroke="#D5B98B" stroke-width="1.5" stroke-linecap="round" stroke-linejoin="round"/>
<path d="M11.0026 20.1654C16.0652 20.1654 20.1693 16.0613 20.1693 10.9987C20.1693 5.93609 16.0652 1.83203 11.0026 1.83203C5.93999 1.83203 1.83594 5.93609 1.83594 10.9987C1.83594 16.0613 5.93999 20.1654 11.0026 20.1654Z" stroke="#D5B98B" stroke-width="1.5" stroke-linecap="round" stroke-linejoin="round"/>
</svg>
