<svg width="24" height="24" viewBox="0 0 24 24" fill="none" xmlns="http://www.w3.org/2000/svg">
<path opacity="0.4" d="M2.0681 4.60086C2.8681 1.14086 8.0781 1.14086 8.8681 4.60086C9.3381 6.63086 8.0481 8.35086 6.9281 9.42086C6.1081 10.2009 4.8181 10.1909 3.9981 9.42086C2.8881 8.35086 1.5981 6.63086 2.0681 4.60086Z" stroke="#005D63" stroke-width="1.5"/>
<path opacity="0.4" d="M15.0719 16.6009C15.8719 13.1409 21.1119 13.1409 21.9119 16.6009C22.3819 18.6309 21.0919 20.3509 19.9619 21.4209C19.1419 22.2009 17.8419 22.1909 17.0219 21.4209C15.8919 20.3509 14.6019 18.6309 15.0719 16.6009Z" stroke="#005D63" stroke-width="1.5"/>
<path d="M12.0017 5H14.6817C16.5317 5 17.3917 7.29 16.0017 8.51L8.01165 15.5C6.62165 16.71 7.48165 19 9.32165 19H12.0017" stroke="#005D63" stroke-width="1.5" stroke-linecap="round" stroke-linejoin="round"/>
<path d="M5.48768 5.5H5.49924" stroke="#005D63" stroke-width="2" stroke-linecap="round" stroke-linejoin="round"/>
<path d="M18.4877 17.5H18.4992" stroke="#005D63" stroke-width="2" stroke-linecap="round" stroke-linejoin="round"/>
</svg>
