<svg width="51" height="50" viewBox="0 0 51 50" fill="none" xmlns="http://www.w3.org/2000/svg">
<g clip-path="url(#clip0_165_2)">
<path d="M7.82808 49.947L19.6706 46.5721C19.3742 46.4872 5.07299 42.396 5.95307 42.6479V48.5409C5.95307 49.0095 6.15815 49.4198 6.53901 49.7127C6.95464 50.0359 7.36089 50.0406 7.82808 49.947Z" fill="black"/>
<path d="M43.4638 49.711C43.8446 49.4181 44.0497 49.0078 44.0497 48.5392V42.6465C43.7532 42.7313 29.4518 46.8222 30.332 46.5704L42.1747 49.9453C42.6346 50.0374 43.0436 50.038 43.4638 49.711Z" fill="black"/>
<path d="M41.115 1.46618C41.115 0.466352 40.1353 -0.239884 39.1869 0.0762666L26.4648 4.31623V29.9342C27.4747 28.9571 28.6985 28.183 30.0959 27.7174L41.115 24.0452C41.115 19.1647 41.115 6.29576 41.115 1.46618Z" fill="black"/>
<path d="M23.5369 29.9348C23.5369 20.1989 23.5369 9.29446 23.5369 4.31623L10.8149 0.0762735C9.86642 -0.239878 8.88672 0.466261 8.88672 1.46618V24.0454L19.9058 27.7189C21.3032 28.184 22.527 28.9578 23.5369 29.9348Z" fill="black"/>
<path d="M48.0135 5.94691L44.0482 7.41193V30.9597C44.0482 31.5907 43.6448 32.1501 43.0467 32.349L25.4665 38.209C25.3163 38.2592 25.159 38.2848 25.003 38.2848C24.847 38.2848 24.6897 38.2591 24.5394 38.209L6.95923 32.349C6.36121 32.15 5.95774 31.5907 5.95774 30.9597V7.41193L1.99242 5.94691C1.52372 5.77111 1.02542 5.85911 0.64451 6.12271C0.234501 6.38652 0 6.85522 0 7.32413V36.8198C0 37.4643 0.439603 38.0503 1.05481 38.2261C1.75714 38.4257 1.33004 38.3027 1.13998 38.2479C1.69307 38.4063 5.80616 39.5575 25.0009 45.0526C25.0301 45.0449 25.0762 45.0328 25.0009 45.0526C25.0016 45.0528 25.0024 45.053 25.0031 45.0531C27.4428 44.3519 26.8506 44.5519 48.9512 38.226C49.5665 38.0502 50.0061 37.4642 50.0061 36.8197V7.32403C50.0061 6.85513 49.7716 6.38642 49.3615 6.12262C48.9805 5.85911 48.4822 5.77111 48.0135 5.94691ZM1.10248 38.2373C1.05784 38.2244 1.04846 38.2216 1.10248 38.2373V38.2373Z" fill="black"/>
<path d="M25.0023 45.0527C25.0023 45.0527 24.9972 45.0544 25.0023 45.0527V45.0527Z" fill="black"/>
<path d="M8.88672 29.9044L23.1735 34.6671C22.5151 32.7356 20.9939 31.1688 18.9776 30.4981L8.88672 27.1328V29.9044Z" fill="black"/>
<path d="M26.8242 34.6673L41.111 29.9046V27.1328L31.0201 30.4969C29.0038 31.1687 27.4826 32.7356 26.8242 34.6673Z" fill="black"/>
</g>
<defs>
<clipPath id="clip0_165_2">
<rect width="51" height="50" fill="white"/>
</clipPath>
</defs>
</svg>
