<svg width="57" height="50" viewBox="0 0 57 50" fill="none" xmlns="http://www.w3.org/2000/svg">
<g clip-path="url(#clip0_165_11)">
<path d="M55.8218 13.5523L29.1135 0.176032C28.6449 -0.0586774 28.0931 -0.0586774 27.6246 0.176032L0.916316 13.5523C-0.304552 14.1638 -0.306325 15.9125 0.916316 16.5247L27.6246 29.901C28.093 30.1357 28.645 30.1357 29.1135 29.901L36.7916 26.0556V24.3744L25.8879 18.2028C25.0889 17.7506 24.8078 16.7364 25.2601 15.9374C25.7125 15.1385 26.7269 14.8575 27.5255 15.3096L39.2728 21.9586C39.7941 22.2536 40.1163 22.8063 40.1163 23.4052V24.3906L55.8218 16.5248C57.0428 15.9133 57.0445 14.1647 55.8218 13.5523Z" fill="black"/>
<path d="M36.7981 33.4053V29.7736L30.6089 32.8734C29.2285 33.5649 27.571 33.5891 26.1421 32.8734L10.0898 24.834V33.822C10.0898 34.122 10.171 34.4163 10.3248 34.674C14.31 41.3508 26.5478 42.5996 34.4453 41.241C32.2746 38.5102 33.5248 34.4798 36.7981 33.4053Z" fill="black"/>
<path d="M40.1172 33.4843C41.9248 34.1746 43.2317 35.8867 43.3251 37.9112C44.5972 37.017 45.6618 35.9455 46.4208 34.674C46.5746 34.4164 46.6557 34.1221 46.6557 33.822V24.834L40.1172 28.1086V33.4843Z" fill="black"/>
<path d="M41.7445 41.7871C39.8286 43.5738 36.8689 43.5776 34.9489 41.7871L32.3894 47.6739C31.9127 48.7698 32.7172 49.9989 33.9139 49.9989H42.7796C43.9747 49.9989 44.7814 48.7713 44.3042 47.6739L41.7445 41.7871Z" fill="black"/>
<path d="M38.3458 39.805C39.2639 39.805 40.0081 39.0608 40.0081 38.1427C40.0081 37.2247 39.2639 36.4805 38.3458 36.4805C37.4278 36.4805 36.6836 37.2247 36.6836 38.1427C36.6836 39.0608 37.4278 39.805 38.3458 39.805Z" fill="black"/>
</g>
<defs>
<clipPath id="clip0_165_11">
<rect width="57" height="50" fill="white"/>
</clipPath>
</defs>
</svg>
