<svg width="100" height="100" viewBox="0 0 100 100" fill="none" xmlns="http://www.w3.org/2000/svg">
<path d="M91.2109 62.8906H8.78906C3.94277 62.8906 0 66.8334 0 71.6797V91.2109C0 96.0572 3.94277 100 8.78906 100H91.2109C96.0572 100 100 96.0572 100 91.2109V71.6797C100 66.8334 96.0572 62.8906 91.2109 62.8906ZM94.1406 91.2109C94.1406 92.8264 92.8264 94.1406 91.2109 94.1406H8.78906C7.17363 94.1406 5.85938 92.8264 5.85938 91.2109V71.6797C5.85938 70.0643 7.17363 68.75 8.78906 68.75H91.2109C92.8264 68.75 94.1406 70.0643 94.1406 71.6797V91.2109Z" fill="#005D63"/>
<path d="M46.2124 74.9792C45.0683 73.8351 43.2134 73.8351 42.0692 74.9792L39.7462 77.3022L37.4231 74.9794C36.279 73.8353 34.4241 73.8353 33.28 74.9794C32.1358 76.1235 32.1358 77.9784 33.28 79.1225L35.603 81.4454L33.2802 83.7682C32.136 84.9124 32.136 86.7673 33.2802 87.9114C34.4243 89.0555 36.2792 89.0555 37.4233 87.9114L39.7464 85.5886L42.0694 87.9114C43.2136 89.0555 45.0685 89.0555 46.2126 87.9114C47.3567 86.7673 47.3567 84.9124 46.2126 83.7682L43.8894 81.4454L46.2122 79.1225C47.3565 77.9784 47.3565 76.1233 46.2124 74.9792Z" fill="#D5B98B"/>
<path d="M25.7046 74.9792C24.5605 73.8351 22.7056 73.8351 21.5614 74.9792L19.2384 77.3022L16.9153 74.9794C15.7712 73.8353 13.9163 73.8353 12.7722 74.9794C11.628 76.1235 11.628 77.9784 12.7722 79.1225L15.0952 81.4454L12.7724 83.7682C11.6282 84.9124 11.6282 86.7673 12.7724 87.9114C13.9165 89.0555 15.7714 89.0555 16.9155 87.9114L19.2384 85.5886L21.5614 87.9114C22.7056 89.0555 24.5605 89.0555 25.7046 87.9114C26.8487 86.7673 26.8487 84.9124 25.7046 83.7682L23.3815 81.4454L25.7044 79.1225C26.8487 77.9784 26.8487 76.1233 25.7046 74.9792Z" fill="#D5B98B"/>
<path d="M66.7202 74.9792C65.5761 73.8351 63.7212 73.8351 62.577 74.9792L60.254 77.3022L57.9309 74.9794C56.7868 73.8353 54.9319 73.8353 53.7878 74.9794C52.6437 76.1235 52.6437 77.9784 53.7878 79.1225L56.1108 81.4454L53.788 83.7682C52.6438 84.9124 52.6438 86.7673 53.788 87.9114C54.9321 89.0555 56.787 89.0555 57.9311 87.9114L60.2542 85.5886L62.5772 87.9114C63.7214 89.0555 65.5763 89.0555 66.7204 87.9114C67.8645 86.7673 67.8645 84.9124 66.7204 83.7682L64.3972 81.4454L66.72 79.1225C67.8643 77.9784 67.8643 76.1233 66.7202 74.9792Z" fill="#D5B98B"/>
<path d="M87.228 74.9792C86.0839 73.8351 84.229 73.8351 83.0849 74.9792L80.7618 77.3022L78.4388 74.9794C77.2946 73.8353 75.4397 73.8353 74.2956 74.9794C73.1515 76.1235 73.1515 77.9784 74.2956 79.1225L76.6186 81.4454L74.2958 83.7682C73.1517 84.9124 73.1517 86.7673 74.2958 87.9114C75.4399 89.0555 77.2948 89.0555 78.439 87.9114L80.762 85.5886L83.085 87.9114C84.2292 89.0555 86.0841 89.0555 87.2282 87.9114C88.3724 86.7673 88.3724 84.9124 87.2282 83.7682L84.905 81.4454L87.2278 79.1225C88.3722 77.9784 88.3722 76.1233 87.228 74.9792Z" fill="#D5B98B"/>
<path d="M50 56.6406C65.6158 56.6406 78.3203 43.9361 78.3203 28.3203C78.3203 12.7045 65.6158 0 50 0C34.3842 0 21.6797 12.7045 21.6797 28.3203C21.6797 43.9361 34.3842 56.6406 50 56.6406ZM60.7422 48.0412C57.5492 49.7875 53.8887 50.7812 50 50.7812C46.1113 50.7812 42.4508 49.7875 39.2578 48.0412V45.8984C39.2578 39.9752 44.0768 35.1562 50 35.1562C55.9232 35.1562 60.7422 39.9752 60.7422 45.8984V48.0412ZM46.0938 25.3906V21.4844C46.0938 19.3305 47.8461 17.5781 50 17.5781C52.1539 17.5781 53.9062 19.3305 53.9062 21.4844V25.3906C53.9062 27.5445 52.1539 29.2969 50 29.2969C47.8461 29.2969 46.0938 27.5445 46.0938 25.3906ZM50 5.85938C62.385 5.85938 72.4609 15.9354 72.4609 28.3203C72.4609 34.2203 70.1732 39.5951 66.4396 43.6072C65.6969 38.2521 62.393 33.7062 57.8057 31.2518C59.0355 29.6182 59.7656 27.5881 59.7656 25.3906V21.4844C59.7656 16.0996 55.3848 11.7188 50 11.7188C44.6152 11.7188 40.2344 16.0996 40.2344 21.4844V25.3906C40.2344 27.5881 40.9645 29.6182 42.1941 31.2518C37.607 33.7062 34.3031 38.2521 33.5602 43.6072C29.8268 39.5951 27.5391 34.2203 27.5391 28.3203C27.5391 15.9354 37.615 5.85938 50 5.85938Z" fill="#005D63"/>
</svg>
