<svg width="100" height="100" viewBox="0 0 100 100" fill="none" xmlns="http://www.w3.org/2000/svg">
<g id="reset_password 1">
<path id="rotate" style="transform-origin: center; transform-box: fill-box; animation: spin 3s linear infinite;" d="M97.0703 47.0703C95.4523 47.0703 94.1406 48.382 94.1406 50C94.1406 74.3393 74.3393 94.1406 50 94.1406C25.6607 94.1406 5.85938 74.3393 5.85938 50C5.85938 25.6607 25.6607 5.85938 50 5.85938C59.8004 5.85938 69.1115 9.03437 76.7639 14.8932L71.6793 15.7916C70.0859 16.073 69.0225 17.593 69.3041 19.1863C69.5855 20.7797 71.1055 21.8432 72.6988 21.5615L83.7934 19.6012C85.193 19.3539 86.2133 18.1375 86.2133 16.7162V5.62168C86.2133 4.00371 84.9016 2.69199 83.2836 2.69199C81.6656 2.69199 80.3539 4.00371 80.3539 5.62168V10.2617C71.6791 3.60605 61.1174 0 50 0C36.6445 0 24.0885 5.20098 14.6445 14.6445C5.20098 24.0885 0 36.6445 0 50C0 63.3555 5.20098 75.9115 14.6445 85.3555C24.0885 94.799 36.6445 100 50 100C63.3555 100 75.9115 94.799 85.3555 85.3555C94.799 75.9115 100 63.3555 100 50C100 48.382 98.6883 47.0703 97.0703 47.0703Z" fill="#005D63"/>
<path id="Vector" d="M50 17.7734C41.3844 17.7734 34.375 24.7828 34.375 33.3984V41.2109H32.4219C30.8039 41.2109 29.4922 42.5227 29.4922 44.1406V71.4844C29.4922 73.1023 30.8039 74.4141 32.4219 74.4141H67.5781C69.1961 74.4141 70.5078 73.1023 70.5078 71.4844V44.1406C70.5078 42.5227 69.1961 41.2109 67.5781 41.2109H65.625V33.3984C65.625 24.7828 58.6156 17.7734 50 17.7734ZM40.2344 33.3984C40.2344 28.0137 44.6152 23.6328 50 23.6328C55.3848 23.6328 59.7656 28.0137 59.7656 33.3984V41.2109H40.2344V33.3984ZM64.6484 68.5547H35.3516V47.0703H64.6484V68.5547Z" fill="#D5B98B"/>
<path id="Vector_2" d="M48.0469 60.7422H51.9531C53.5711 60.7422 54.8828 59.4305 54.8828 57.8125C54.8828 56.1945 53.5711 54.8828 51.9531 54.8828H48.0469C46.4289 54.8828 45.1172 56.1945 45.1172 57.8125C45.1172 59.4305 46.4289 60.7422 48.0469 60.7422Z" fill="#005D63"/>
</g>
<style>
  @keyframes spin {
    0% {
      transform: rotate(0deg) scale(.85);
    }
  
    100% {
      transform: rotate(360deg) scale(.85);
    }
  }
</style>
</svg>
