<svg width="100" height="100" viewBox="0 0 100 100" fill="none" xmlns="http://www.w3.org/2000/svg">
<path d="M50 0C22.4299 0 0 22.4299 0 50C0 77.5701 22.4299 100 50 100C77.5701 100 100 77.5701 100 50C100 22.4299 77.5701 0 50 0ZM50 94.1406C38.7414 94.1406 28.4559 89.9016 20.6498 82.9385C28.743 75.7068 39.0547 71.7578 50 71.7578C60.9453 71.7578 71.2572 75.7068 79.35 82.9383C71.5441 89.9016 61.2586 94.1406 50 94.1406ZM83.4588 78.7584C70.3609 66.9297 55.8195 65.8984 50 65.8984C44.1633 65.8984 29.6359 66.9352 16.541 78.7582C9.88731 71.0279 5.85938 60.9758 5.85938 50C5.85938 25.6607 25.6607 5.85938 50 5.85938C74.3393 5.85938 94.1406 25.6607 94.1406 50C94.1406 60.976 90.1127 71.0279 83.4588 78.7584Z" fill="#005D63"/>
<path d="M49.9986 15.6895C39.7166 15.6895 31.3789 24.0088 31.3789 34.3094V40.5854C31.3789 50.8676 39.6982 59.2053 49.9986 59.2053C60.2807 59.2053 68.6184 50.8859 68.6184 40.5854V34.3094C68.6184 24.0256 60.2977 15.6895 49.9986 15.6895ZM62.759 40.5854C62.759 47.633 57.0566 53.3459 49.9986 53.3459C43.0662 53.3459 37.2383 47.7436 37.2383 40.5854V34.3094C37.2383 27.151 43.0668 21.5488 49.9986 21.5488C57.0453 21.5488 62.759 27.2504 62.759 34.3094V40.5854Z" fill="#D5B98B"/>
</svg>
