<svg width="80" height="80" viewBox="0 0 80 80" fill="none" xmlns="http://www.w3.org/2000/svg">
<g id="verified 1">
<path id="Vector" d="M68.2842 11.7156C60.7292 4.16078 50.6844 0 40 0C29.3155 0 19.2705 4.16078 11.7156 11.7156C4.16063 19.2706 0 29.3156 0 40C0 50.6844 4.16063 60.7292 11.7156 68.2842C19.2706 75.8392 29.3155 80 40 80C50.6844 80 60.7292 75.8392 68.2842 68.2842C75.8392 60.7292 80 50.6844 80 40C80 29.3156 75.8392 19.2708 68.2842 11.7156ZM40 75.3125C20.5286 75.3125 4.6875 59.4714 4.6875 40C4.6875 20.5286 20.5286 4.6875 40 4.6875C59.4714 4.6875 75.3125 20.5286 75.3125 40C75.3125 59.4714 59.4714 75.3125 40 75.3125Z" fill="#005D63"/>
<path id="rotate"  style="transform-origin: center; transform-box: fill-box; animation: spin 3s linear infinite;" d="M59.1101 27.1647C58.1949 26.2497 56.7109 26.2497 55.7957 27.1649L35.099 47.8616L24.2041 36.9668C23.289 36.0516 21.8049 36.0516 20.8896 36.9668C19.9743 37.8819 19.9743 39.366 20.8896 40.2813L33.4416 52.8333C33.8993 53.291 34.4991 53.5197 35.0988 53.5197C35.6985 53.5197 36.2985 53.2908 36.756 52.8333L59.1101 30.4793C60.0254 29.5641 60.0254 28.0801 59.1101 27.1647Z" fill="#D5B98B"/>
</g>
<style>
  @keyframes spin {
    0%, 100%{
      transform: rotate(0deg);
    }
  
    50% {
      transform: rotate(10deg);
    }
  }
</style>
</svg>
