<svg width="24" height="24" viewBox="0 0 24 24" fill="none" xmlns="http://www.w3.org/2000/svg">
<path d="M5.14844 22C4.73844 22 4.39844 21.66 4.39844 21.25V2.75C4.39844 2.34 4.73844 2 5.14844 2C5.55844 2 5.89844 2.34 5.89844 2.75V21.25C5.89844 21.66 5.55844 22 5.14844 22Z" fill="black"/>
<path opacity="0.4" d="M18.0234 12.3294L16.8034 11.1094C16.5134 10.8594 16.3434 10.4894 16.3334 10.0794C16.3134 9.62938 16.4934 9.17937 16.8234 8.84937L18.0234 7.64937C19.0634 6.60938 19.4534 5.60937 19.1234 4.81937C18.8034 4.03937 17.8134 3.60938 16.3534 3.60938H5.15344C4.94344 3.61937 4.77344 3.78938 4.77344 3.99938V15.9994C4.77344 16.2094 4.94344 16.3794 5.15344 16.3794H16.3534C17.7934 16.3794 18.7634 15.9394 19.0934 15.1494C19.4234 14.3494 19.0434 13.3594 18.0234 12.3294Z" fill="black"/>
</svg>
