<svg width="24" height="24" viewBox="0 0 24 24" fill="none" xmlns="http://www.w3.org/2000/svg">
<path d="M10.0534 2.53126L4.03344 6.46126C2.10344 7.72126 2.10344 10.5413 4.03344 11.8013L10.0534 15.7313C11.1334 16.4413 12.9134 16.4413 13.9934 15.7313L19.9834 11.8013C21.9034 10.5413 21.9034 7.73126 19.9834 6.47126L13.9934 2.54126C12.9134 1.82126 11.1334 1.82126 10.0534 2.53126Z" stroke="black" stroke-width="1.5" stroke-linecap="round" stroke-linejoin="round"/>
<path opacity="0.4" d="M5.62719 13.0781L5.61719 17.7681C5.61719 19.0381 6.59719 20.3981 7.79719 20.7981L10.9872 21.8581C11.5372 22.0381 12.4472 22.0381 13.0072 21.8581L16.1972 20.7981C17.3972 20.3981 18.3772 19.0381 18.3772 17.7681V13.1281" stroke="black" stroke-width="1.5" stroke-linecap="round" stroke-linejoin="round"/>
<path opacity="0.4" d="M21.3984 15V9" stroke="black" stroke-width="1.5" stroke-linecap="round" stroke-linejoin="round"/>
</svg>
