<svg width="24" height="24" viewBox="0 0 24 24" fill="none" xmlns="http://www.w3.org/2000/svg">
<path d="M12 12C14.7614 12 17 9.76142 17 7C17 4.23858 14.7614 2 12 2C9.23858 2 7 4.23858 7 7C7 9.76142 9.23858 12 12 12Z" stroke="black" stroke-width="1.5" stroke-linecap="round" stroke-linejoin="round"/>
<path d="M19.211 15.741L15.671 19.281C15.531 19.421 15.401 19.681 15.371 19.871L15.181 21.221C15.111 21.711 15.451 22.051 15.941 21.981L17.291 21.791C17.481 21.761 17.751 21.631 17.881 21.491L21.421 17.951C22.031 17.341 22.321 16.631 21.421 15.731C20.531 14.841 19.821 15.131 19.211 15.741Z" stroke="black" stroke-width="1.5" stroke-miterlimit="10" stroke-linecap="round" stroke-linejoin="round"/>
<path d="M18.7031 16.25C19.0031 17.33 19.8431 18.17 20.9231 18.47" stroke="black" stroke-width="1.5" stroke-miterlimit="10" stroke-linecap="round" stroke-linejoin="round"/>
<path opacity="0.4" d="M3.40625 22C3.40625 18.13 7.25628 15 11.9963 15C13.0363 15 14.0362 15.15 14.9662 15.43" stroke="black" stroke-width="1.5" stroke-linecap="round" stroke-linejoin="round"/>
</svg>
