<svg width="50" height="50" viewBox="0 0 50 50" fill="none" xmlns="http://www.w3.org/2000/svg">
<path opacity="0.4" d="M43.75 14.5846V35.418C43.75 41.668 40.625 45.8346 33.3333 45.8346H16.6667C9.375 45.8346 6.25 41.668 6.25 35.418V14.5846C6.25 8.33464 9.375 4.16797 16.6667 4.16797H33.3333C40.625 4.16797 43.75 8.33464 43.75 14.5846Z" fill="#D5B98B"/>
<path d="M32.2943 4.16797V20.5429C32.2943 21.4596 31.2109 21.918 30.5442 21.3138L25.711 16.8555C25.3152 16.4805 24.69 16.4805 24.2942 16.8555L19.461 21.3138C18.7943 21.9388 17.7109 21.4596 17.7109 20.5429V4.16797H32.2943Z" fill="#D5B98B"/>
<path d="M36.4557 30.7305H27.6016C26.7474 30.7305 26.0391 30.0221 26.0391 29.168C26.0391 28.3138 26.7474 27.6055 27.6016 27.6055H36.4557C37.3099 27.6055 38.0182 28.3138 38.0182 29.168C38.0182 30.0221 37.3099 30.7305 36.4557 30.7305Z" fill="#D5B98B"/>
<path d="M36.4583 39.0625H18.75C17.8958 39.0625 17.1875 38.3542 17.1875 37.5C17.1875 36.6458 17.8958 35.9375 18.75 35.9375H36.4583C37.3125 35.9375 38.0208 36.6458 38.0208 37.5C38.0208 38.3542 37.3125 39.0625 36.4583 39.0625Z" fill="#D5B98B"/>
</svg>
