<svg width="50" height="50" viewBox="0 0 50 50" fill="none" xmlns="http://www.w3.org/2000/svg">
<path opacity="0.4" d="M36.2917 2.87485C35.8542 2.58318 35.3125 2.52064 34.8333 2.70814C31.8542 3.89564 28.5625 3.89564 25.5833 2.70814C25.1042 2.52064 24.5625 2.58318 24.125 2.87485C23.6875 3.16651 23.4375 3.64567 23.4375 4.1665V10.4165V16.6665C23.4375 17.5207 24.1458 18.229 25 18.229C25.8542 18.229 26.5625 17.5207 26.5625 16.6665V12.5415C27.7708 12.8332 28.9792 12.9998 30.2083 12.9998C32.1667 12.9998 34.125 12.6249 36 11.8749C36.5833 11.6457 36.9792 11.0623 36.9792 10.4165V4.1665C36.9792 3.64567 36.7292 3.16651 36.2917 2.87485Z" fill="#D5B98B"/>
<path d="M45.8307 44.2721H43.2266V22.918C43.2266 17.8763 40.4557 15.1055 35.4141 15.1055H14.5807C9.53906 15.1055 6.76823 17.8763 6.76823 22.918V44.2721H4.16406C3.3099 44.2721 2.60156 44.9805 2.60156 45.8346C2.60156 46.6888 3.3099 47.3971 4.16406 47.3971H8.33073H41.6641H45.8307C46.6849 47.3971 47.3932 46.6888 47.3932 45.8346C47.3932 44.9805 46.6849 44.2721 45.8307 44.2721ZM40.1016 26.5638V44.2721H34.8724V26.5638H40.1016ZM23.4141 44.2721H18.2057V26.5638H23.4141V44.2721ZM26.5391 26.5638H31.7474V44.2721H26.5391V26.5638ZM9.89323 26.5638H15.0807V44.2721H9.89323V26.5638Z" fill="#D5B98B"/>
</svg>
