<svg width="50" height="50" viewBox="0 0 50 50" fill="none" xmlns="http://www.w3.org/2000/svg">
<path opacity="0.4" d="M42.7109 21.2305H36.6901C31.7526 21.2305 27.7318 17.2096 27.7318 12.2721V6.2513C27.7318 5.10547 26.7943 4.16797 25.6484 4.16797H16.8151C10.3984 4.16797 5.21094 8.33464 5.21094 15.7721V34.2305C5.21094 41.668 10.3984 45.8346 16.8151 45.8346H33.1901C39.6068 45.8346 44.7943 41.668 44.7943 34.2305V23.3138C44.7943 22.168 43.8568 21.2305 42.7109 21.2305Z" fill="#D5B98B"/>
<path d="M32.9193 4.60517C32.0651 3.751 30.5859 4.33434 30.5859 5.52184V12.7927C30.5859 15.8343 33.1693 18.3552 36.3151 18.3552C38.2943 18.376 41.0443 18.376 43.3984 18.376C44.5859 18.376 45.2109 16.9802 44.3776 16.1468C41.3776 13.126 36.0026 7.6885 32.9193 4.60517Z" fill="#D5B98B"/>
<path d="M28.125 28.6445H15.625C14.7708 28.6445 14.0625 27.9362 14.0625 27.082C14.0625 26.2279 14.7708 25.5195 15.625 25.5195H28.125C28.9792 25.5195 29.6875 26.2279 29.6875 27.082C29.6875 27.9362 28.9792 28.6445 28.125 28.6445Z" fill="#D5B98B"/>
<path d="M23.9583 36.9805H15.625C14.7708 36.9805 14.0625 36.2721 14.0625 35.418C14.0625 34.5638 14.7708 33.8555 15.625 33.8555H23.9583C24.8125 33.8555 25.5208 34.5638 25.5208 35.418C25.5208 36.2721 24.8125 36.9805 23.9583 36.9805Z" fill="#D5B98B"/>
</svg>
