<svg width="50" height="50" viewBox="0 0 50 50" fill="none" xmlns="http://www.w3.org/2000/svg">
<path d="M10.7266 45.8346C9.8724 45.8346 9.16406 45.1263 9.16406 44.2721V5.73047C9.16406 4.8763 9.8724 4.16797 10.7266 4.16797C11.5807 4.16797 12.2891 4.8763 12.2891 5.73047V44.2721C12.2891 45.1263 11.5807 45.8346 10.7266 45.8346Z" fill="#D5B98B"/>
<path opacity="0.4" d="M37.5417 25.6862L35 23.1445C34.3958 22.6237 34.0417 21.8529 34.0208 20.9987C33.9792 20.0612 34.3542 19.1237 35.0417 18.4362L37.5417 15.9362C39.7083 13.7695 40.5208 11.6862 39.8333 10.0404C39.1667 8.41537 37.1042 7.51953 34.0625 7.51953H10.7292C10.2917 7.54036 9.9375 7.89453 9.9375 8.33203V33.332C9.9375 33.7695 10.2917 34.1237 10.7292 34.1237H34.0625C37.0625 34.1237 39.0833 33.207 39.7708 31.5612C40.4583 29.8945 39.6667 27.832 37.5417 25.6862Z" fill="#D5B98B"/>
</svg>
