<svg width="50" height="50" viewBox="0 0 50 50" fill="none" xmlns="http://www.w3.org/2000/svg">
<path opacity="0.4" d="M36.5182 16.1888C36.3724 16.168 36.2266 16.168 36.0807 16.1888C32.8516 16.0846 30.2891 13.4388 30.2891 10.1888C30.2891 6.8763 32.9766 4.16797 36.3099 4.16797C39.6224 4.16797 42.3307 6.85547 42.3307 10.1888C42.3099 13.4388 39.7474 16.0846 36.5182 16.1888Z" fill="#D5B98B"/>
<path opacity="0.4" d="M43.3151 30.6239C40.9818 32.1864 37.7109 32.7697 34.6901 32.3739C35.4818 30.6655 35.8984 28.7697 35.9193 26.7697C35.9193 24.6864 35.4609 22.7072 34.5859 20.9781C37.6693 20.5614 40.9401 21.1447 43.2943 22.7072C46.5859 24.8739 46.5859 28.4364 43.3151 30.6239Z" fill="#D5B98B"/>
<path opacity="0.4" d="M13.4141 16.1888C13.5599 16.168 13.7057 16.168 13.8516 16.1888C17.0807 16.0846 19.6432 13.4388 19.6432 10.1888C19.6432 6.8763 16.9557 4.16797 13.6224 4.16797C10.3099 4.16797 7.60156 6.85547 7.60156 10.1888C7.6224 13.4388 10.1849 16.0846 13.4141 16.1888Z" fill="#D5B98B"/>
<path opacity="0.4" d="M13.6458 26.7701C13.6458 28.791 14.0833 30.7076 14.875 32.4368C11.9375 32.7493 8.875 32.1243 6.625 30.6451C3.33333 28.4576 3.33333 24.8951 6.625 22.7076C8.85417 21.2076 12 20.6034 14.9583 20.9368C14.1042 22.6868 13.6458 24.666 13.6458 26.7701Z" fill="#D5B98B"/>
<path d="M25.25 33.0625C25.0833 33.0417 24.8958 33.0417 24.7083 33.0625C20.875 32.9375 17.8125 29.7917 17.8125 25.9167C17.8125 21.9583 21 18.75 24.9792 18.75C28.9375 18.75 32.1458 21.9583 32.1458 25.9167C32.1458 29.7917 29.1042 32.9375 25.25 33.0625Z" fill="#D5B98B"/>
<path d="M18.4766 37.375C15.3307 39.4792 15.3307 42.9375 18.4766 45.0208C22.0599 47.4167 27.9349 47.4167 31.5182 45.0208C34.6641 42.9167 34.6641 39.4583 31.5182 37.375C27.9557 34.9792 22.0807 34.9792 18.4766 37.375Z" fill="#D5B98B"/>
</svg>
