<svg width="50" height="50" viewBox="0 0 50 50" fill="none" xmlns="http://www.w3.org/2000/svg">
<path opacity="0.4" d="M18.7474 4.16797C13.2891 4.16797 8.85156 8.60547 8.85156 14.0638C8.85156 19.418 13.0391 23.7513 18.4974 23.9388C18.6641 23.918 18.8307 23.918 18.9557 23.9388C18.9974 23.9388 19.0182 23.9388 19.0599 23.9388C19.0807 23.9388 19.0807 23.9388 19.1016 23.9388C24.4349 23.7513 28.6224 19.418 28.6432 14.0638C28.6432 8.60547 24.2057 4.16797 18.7474 4.16797Z" fill="#D5B98B"/>
<path d="M29.3359 29.4805C23.5234 25.6055 14.0443 25.6055 8.1901 29.4805C5.54427 31.2513 4.08594 33.6471 4.08594 36.2096C4.08594 38.7721 5.54427 41.1471 8.16927 42.8971C11.0859 44.8555 14.9193 45.8346 18.7526 45.8346C22.5859 45.8346 26.4193 44.8555 29.3359 42.8971C31.9609 41.1263 33.4193 38.7513 33.4193 36.168C33.3984 33.6055 31.9609 31.2305 29.3359 29.4805Z" fill="#D5B98B"/>
<path opacity="0.4" d="M41.6484 15.2898C41.9818 19.3314 39.1068 22.8731 35.1276 23.3523C35.1068 23.3523 35.1068 23.3523 35.0859 23.3523H35.0234C34.8984 23.3523 34.7734 23.3523 34.6693 23.3939C32.6484 23.4981 30.7943 22.8523 29.3984 21.6648C31.5443 19.7481 32.7734 16.8731 32.5234 13.7481C32.3776 12.0606 31.7943 10.5189 30.9193 9.20643C31.7109 8.81059 32.6276 8.56059 33.5651 8.47726C37.6484 8.12309 41.2943 11.1648 41.6484 15.2898Z" fill="#D5B98B"/>
<path d="M45.8151 34.5607C45.6484 36.5816 44.3568 38.3316 42.1901 39.5191C40.1068 40.6649 37.4818 41.2066 34.8776 41.1441C36.3776 39.7899 37.2526 38.1024 37.4193 36.3107C37.6276 33.7274 36.3984 31.2482 33.9401 29.2691C32.5443 28.1649 30.9193 27.2899 29.1484 26.6441C33.7526 25.3107 39.5443 26.2066 43.1068 29.0816C45.0234 30.6232 46.0026 32.5607 45.8151 34.5607Z" fill="#D5B98B"/>
</svg>
