<svg width="50" height="50" viewBox="0 0 50 50" fill="none" xmlns="http://www.w3.org/2000/svg">
<path d="M41.6667 40.1237H22.7708C21.8333 40.1237 21.0625 39.3529 21.0625 38.4154C21.0625 37.4779 21.8333 36.707 22.7708 36.707H41.6667C42.6042 36.707 43.375 37.4779 43.375 38.4154C43.375 39.3737 42.6042 40.1237 41.6667 40.1237Z" fill="#D5B98B"/>
<path d="M41.6667 27.0221H22.7708C21.8333 27.0221 21.0625 26.2513 21.0625 25.3138C21.0625 24.3763 21.8333 23.6055 22.7708 23.6055H41.6667C42.6042 23.6055 43.375 24.3763 43.375 25.3138C43.375 26.2513 42.6042 27.0221 41.6667 27.0221Z" fill="#D5B98B"/>
<path d="M41.6667 13.8971H22.7708C21.8333 13.8971 21.0625 13.1263 21.0625 12.1888C21.0625 11.2513 21.8333 10.4805 22.7708 10.4805H41.6667C42.6042 10.4805 43.375 11.2513 43.375 12.1888C43.375 13.1263 42.6042 13.8971 41.6667 13.8971Z" fill="#D5B98B"/>
<path opacity="0.4" d="M10.2292 16.7279C9.77083 16.7279 9.33333 16.5404 9.02083 16.2279L7.125 14.332C6.45833 13.6654 6.45833 12.582 7.125 11.9154C7.79167 11.2487 8.875 11.2487 9.54167 11.9154L10.2292 12.6029L14.6875 8.14453C15.3542 7.47786 16.4375 7.47786 17.1042 8.14453C17.7708 8.8112 17.7708 9.89453 17.1042 10.5612L11.4375 16.2279C11.1042 16.5404 10.6875 16.7279 10.2292 16.7279Z" fill="#D5B98B"/>
<path opacity="0.4" d="M10.2292 29.8529C9.79167 29.8529 9.35417 29.6862 9.02083 29.3529L7.125 27.457C6.45833 26.7904 6.45833 25.707 7.125 25.0404C7.79167 24.3737 8.875 24.3737 9.54167 25.0404L10.2292 25.7279L14.6875 21.2695C15.3542 20.6029 16.4375 20.6029 17.1042 21.2695C17.7708 21.9362 17.7708 23.0195 17.1042 23.6862L11.4375 29.3529C11.1042 29.6862 10.6667 29.8529 10.2292 29.8529Z" fill="#D5B98B"/>
<path opacity="0.4" d="M10.2292 42.3529C9.79167 42.3529 9.35417 42.1862 9.02083 41.8529L7.125 39.957C6.45833 39.2904 6.45833 38.207 7.125 37.5404C7.79167 36.8737 8.875 36.8737 9.54167 37.5404L10.2292 38.2279L14.6875 33.7695C15.3542 33.1029 16.4375 33.1029 17.1042 33.7695C17.7708 34.4362 17.7708 35.5195 17.1042 36.1862L11.4375 41.8529C11.1042 42.1862 10.6667 42.3529 10.2292 42.3529Z" fill="#D5B98B"/>
</svg>
