<svg width="50" height="50" viewBox="0 0 50 50" fill="none" xmlns="http://www.w3.org/2000/svg">
<path opacity="0.4" d="M38.2943 26.75V37.0208C38.2943 39.6667 36.2318 42.5 33.7526 43.3333L27.1068 45.5417C25.9401 45.9375 24.0443 45.9375 22.8984 45.5417L16.2526 43.3333C13.7526 42.5 11.7109 39.6667 11.7109 37.0208L11.7318 26.75L20.9401 32.75C23.1901 34.2292 26.8984 34.2292 29.1484 32.75L38.2943 26.75Z" fill="#D5B98B"/>
<path d="M41.6276 13.457L29.1484 5.26953C26.8984 3.79036 23.1901 3.79036 20.9401 5.26953L8.39844 13.457C4.3776 16.0612 4.3776 21.957 8.39844 24.582L11.7318 26.7487L20.9401 32.7487C23.1901 34.2279 26.8984 34.2279 29.1484 32.7487L38.2943 26.7487L41.1484 24.8737V31.2487C41.1484 32.1029 41.8568 32.8112 42.7109 32.8112C43.5651 32.8112 44.2734 32.1029 44.2734 31.2487V20.9987C45.1068 18.3112 44.2526 15.1862 41.6276 13.457Z" fill="#D5B98B"/>
</svg>
